<svg xmlns="http://www.w3.org/2000/svg" version="1.1" xmlns:xlink="http://www.w3.org/1999/xlink" xmlns:svgjs="http://svgjs.dev/svgjs" width="1500" height="1500" viewBox="0 0 1500 1500"><rect width="1500" height="1500" fill="#000000"></rect><g transform="matrix(0.6666666666666666,0,0,0.6666666666666666,249.39393939393938,435.99032258064517)"><svg viewBox="0 0 396 248" data-background-color="#ffffff" preserveAspectRatio="xMidYMid meet" height="939" width="1500" xmlns="http://www.w3.org/2000/svg" xmlns:xlink="http://www.w3.org/1999/xlink"><g id="tight-bounds" transform="matrix(1,0,0,1,0.2400000000000091,0.4000000000000057)"><svg viewBox="0 0 395.52 247.2" height="247.2" width="395.52"><g><svg></svg></g><g><svg viewBox="0 0 395.52 247.2" height="247.2" width="395.52"><g transform="matrix(1,0,0,1,75.54432,105.44715964811533)"><svg viewBox="0 0 244.43135999999998 36.30568070376933" height="36.30568070376933" width="244.43135999999998"><g><svg viewBox="0 0 294.6188616032015 43.760090025575444" height="36.30568070376933" width="244.43135999999998"><g transform="matrix(1,0,0,1,50.18750160320147,0)"><svg viewBox="0 0 244.43135999999998 43.760090025575444" height="43.760090025575444" width="244.43135999999998"><g id="textblocktransform"><svg viewBox="0 0 244.43135999999998 43.760090025575444" height="43.760090025575444" width="244.43135999999998" id="textblock"><g><svg viewBox="0 0 244.43135999999998 43.760090025575444" height="43.760090025575444" width="244.43135999999998"><g transform="matrix(1,0,0,1,0,0)"><svg width="244.43135999999998" viewBox="1.7999999999999998 -28 156.38 28" height="43.760090025575444" data-palette-color="#000000"><path d="M18.2-22Q18.2-20.85 18-20L18-20Q18.2-19.2 18.2-18L18.2-18Q18.2-16.85 18-16L18-16 16-16Q16.2-15.2 16.2-14L16.2-14Q16.2-12.85 16-12L16-12 6-12Q6.2-11.2 6.2-10L6.2-10Q6.2-8.85 6-8L6-8Q6.2-7.2 6.2-6L6.2-6Q6.2-4.85 6-4L6-4Q6.2-3.2 6.2-2L6.2-2Q6.2-0.85 6 0L6 0 2 0Q1.8-0.85 1.8-2L1.8-2Q1.8-3.2 2-4L2-4Q1.8-4.85 1.8-6L1.8-6Q1.8-7.2 2-8L2-8Q1.8-8.85 1.8-10L1.8-10Q1.8-11.2 2-12L2-12Q1.8-12.85 1.8-14L1.8-14Q1.8-15.2 2-16L2-16Q1.8-16.85 1.8-18L1.8-18Q1.8-19.2 2-20L2-20Q1.8-20.85 1.8-22L1.8-22Q1.8-23.2 2-24L2-24Q1.8-24.85 1.8-26L1.8-26Q1.8-27.2 2-28L2-28 16-28Q16.2-27.2 16.2-26L16.2-26Q16.2-24.85 16-24L16-24 18-24Q18.2-23.2 18.2-22L18.2-22ZM14-16Q13.8-16.85 13.8-18L13.8-18Q13.8-19.2 14-20L14-20Q13.8-20.85 13.8-22L13.8-22Q13.8-23.2 14-24L14-24 6-24Q6.2-23.2 6.2-22L6.2-22Q6.2-20.85 6-20L6-20Q6.2-19.2 6.2-18L6.2-18Q6.2-16.85 6-16L6-16 14-16ZM38.2-6Q38.2-4.85 38-4L38-4Q38.2-3.2 38.2-2L38.2-2Q38.2-0.85 38 0L38 0 34 0Q33.8-0.85 33.8-2L33.8-2Q33.8-3.2 34-4L34-4Q33.8-4.85 33.8-6L33.8-6Q33.8-7.2 34-8L34-8 26-8Q26.2-7.2 26.2-6L26.2-6Q26.2-4.85 26-4L26-4Q26.2-3.2 26.2-2L26.2-2Q26.2-0.85 26 0L26 0 22 0Q21.8-0.85 21.8-2L21.8-2Q21.8-3.2 22-4L22-4Q21.8-4.85 21.8-6L21.8-6Q21.8-7.2 22-8L22-8 23.5-8Q23.3-8.85 23.3-10L23.3-10Q23.3-11.2 23.5-12L23.5-12Q23.3-12.85 23.3-14L23.3-14Q23.3-15.2 23.5-16L23.5-16 24.5-16Q24.3-16.85 24.3-18L24.3-18Q24.3-19.2 24.5-20L24.5-20 26-20Q25.8-20.85 25.8-22L25.8-22Q25.8-23.2 26-24L26-24 27-24Q26.8-24.85 26.8-26L26.8-26Q26.8-27.2 27-28L27-28 33-28Q33.2-27.2 33.2-26L33.2-26Q33.2-24.85 33-24L33-24 34-24Q34.2-23.2 34.2-22L34.2-22Q34.2-20.85 34-20L34-20 35.5-20Q35.7-19.2 35.7-18L35.7-18Q35.7-16.85 35.5-16L35.5-16 36.5-16Q36.7-15.2 36.7-14L36.7-14Q36.7-12.85 36.5-12L36.5-12Q36.7-11.2 36.7-10L36.7-10Q36.7-8.85 36.5-8L36.5-8 38-8Q38.2-7.2 38.2-6L38.2-6ZM32.5-12Q32.3-12.85 32.3-14L32.3-14Q32.3-15.2 32.5-16L32.5-16 31.5-16Q31.3-16.85 31.3-18L31.3-18Q31.3-19.2 31.5-20L31.5-20 28.5-20Q28.7-19.2 28.7-18L28.7-18Q28.7-16.85 28.5-16L28.5-16 27.5-16Q27.7-15.2 27.7-14L27.7-14Q27.7-12.85 27.5-12L27.5-12 32.5-12ZM58.2-26Q58.2-24.85 58-24L58-24 52-24Q52.2-23.2 52.2-22L52.2-22Q52.2-20.85 52-20L52-20Q52.2-19.2 52.2-18L52.2-18Q52.2-16.85 52-16L52-16Q52.2-15.2 52.2-14L52.2-14Q52.2-12.85 52-12L52-12Q52.2-11.2 52.2-10L52.2-10Q52.2-8.85 52-8L52-8Q52.2-7.2 52.2-6L52.2-6Q52.2-4.85 52-4L52-4Q52.2-3.2 52.2-2L52.2-2Q52.2-0.85 52 0L52 0 48 0Q47.8-0.85 47.8-2L47.8-2Q47.8-3.2 48-4L48-4Q47.8-4.85 47.8-6L47.8-6Q47.8-7.2 48-8L48-8Q47.8-8.85 47.8-10L47.8-10Q47.8-11.2 48-12L48-12Q47.8-12.85 47.8-14L47.8-14Q47.8-15.2 48-16L48-16Q47.8-16.85 47.8-18L47.8-18Q47.8-19.2 48-20L48-20Q47.8-20.85 47.8-22L47.8-22Q47.8-23.2 48-24L48-24 42-24Q41.8-24.85 41.8-26L41.8-26Q41.8-27.2 42-28L42-28 58-28Q58.2-27.2 58.2-26L58.2-26ZM77.99-24Q78.19-23.2 78.19-22L78.19-22Q78.19-20.85 77.99-20L77.99-20Q78.19-19.2 78.19-18L78.19-18Q78.19-16.85 77.99-16L77.99-16Q78.19-15.2 78.19-14L78.19-14Q78.19-12.85 77.99-12L77.99-12Q78.19-11.2 78.19-10L78.19-10Q78.19-8.85 77.99-8L77.99-8Q78.19-7.2 78.19-6L78.19-6Q78.19-4.85 77.99-4L77.99-4 75.99-4Q76.19-3.2 76.19-2L76.19-2Q76.19-0.85 75.99 0L75.99 0 63.99 0Q63.79-0.85 63.79-2L63.79-2Q63.79-3.2 63.99-4L63.99-4 61.99-4Q61.79-4.85 61.79-6L61.79-6Q61.79-7.2 61.99-8L61.99-8Q61.79-8.85 61.79-10L61.79-10Q61.79-11.2 61.99-12L61.99-12Q61.79-12.85 61.79-14L61.79-14Q61.79-15.2 61.99-16L61.99-16Q61.79-16.85 61.79-18L61.79-18Q61.79-19.2 61.99-20L61.99-20Q61.79-20.85 61.79-22L61.79-22Q61.79-23.2 61.99-24L61.99-24Q61.79-24.85 61.79-26L61.79-26Q61.79-27.2 61.99-28L61.99-28 65.99-28Q66.19-27.2 66.19-26L66.19-26Q66.19-24.85 65.99-24L65.99-24Q66.19-23.2 66.19-22L66.19-22Q66.19-20.85 65.99-20L65.99-20Q66.19-19.2 66.19-18L66.19-18Q66.19-16.85 65.99-16L65.99-16Q66.19-15.2 66.19-14L66.19-14Q66.19-12.85 65.99-12L65.99-12Q66.19-11.2 66.19-10L66.19-10Q66.19-8.85 65.99-8L65.99-8Q66.19-7.2 66.19-6L66.19-6Q66.19-4.85 65.99-4L65.99-4 73.99-4Q73.79-4.85 73.79-6L73.79-6Q73.79-7.2 73.99-8L73.99-8Q73.79-8.85 73.79-10L73.79-10Q73.79-11.2 73.99-12L73.99-12Q73.79-12.85 73.79-14L73.79-14Q73.79-15.2 73.99-16L73.99-16Q73.79-16.85 73.79-18L73.79-18Q73.79-19.2 73.99-20L73.99-20Q73.79-20.85 73.79-22L73.79-22Q73.79-23.2 73.99-24L73.99-24Q73.79-24.85 73.79-26L73.79-26Q73.79-27.2 73.99-28L73.99-28 77.99-28Q78.19-27.2 78.19-26L78.19-26Q78.19-24.85 77.99-24L77.99-24ZM97.99-24Q98.19-23.2 98.19-22L98.19-22Q98.19-20.85 97.99-20L97.99-20Q98.19-19.2 98.19-18L98.19-18Q98.19-16.85 97.99-16L97.99-16Q98.19-15.2 98.19-14L98.19-14Q98.19-12.85 97.99-12L97.99-12Q98.19-11.2 98.19-10L98.19-10Q98.19-8.85 97.99-8L97.99-8Q98.19-7.2 98.19-6L98.19-6Q98.19-4.85 97.99-4L97.99-4Q98.19-3.2 98.19-2L98.19-2Q98.19-0.85 97.99 0L97.99 0 93.99 0Q93.79-0.85 93.79-2L93.79-2Q93.79-3.2 93.99-4L93.99-4 91.49-4Q91.29-4.85 91.29-6L91.29-6Q91.29-7.2 91.49-8L91.49-8 89.99-8Q89.79-8.85 89.79-10L89.79-10Q89.79-11.2 89.99-12L89.99-12 87.99-12Q87.79-12.85 87.79-14L87.79-14Q87.79-15.2 87.99-16L87.99-16 85.99-16Q86.19-15.2 86.19-14L86.19-14Q86.19-12.85 85.99-12L85.99-12Q86.19-11.2 86.19-10L86.19-10Q86.19-8.85 85.99-8L85.99-8Q86.19-7.2 86.19-6L86.19-6Q86.19-4.85 85.99-4L85.99-4Q86.19-3.2 86.19-2L86.19-2Q86.19-0.85 85.99 0L85.99 0 81.99 0Q81.79-0.85 81.79-2L81.79-2Q81.79-3.2 81.99-4L81.99-4Q81.79-4.85 81.79-6L81.79-6Q81.79-7.2 81.99-8L81.99-8Q81.79-8.85 81.79-10L81.79-10Q81.79-11.2 81.99-12L81.99-12Q81.79-12.85 81.79-14L81.79-14Q81.79-15.2 81.99-16L81.99-16Q81.79-16.85 81.79-18L81.79-18Q81.79-19.2 81.99-20L81.99-20Q81.79-20.85 81.79-22L81.79-22Q81.79-23.2 81.99-24L81.99-24Q81.79-24.85 81.79-26L81.79-26Q81.79-27.2 81.99-28L81.99-28 86.99-28Q87.19-27.2 87.19-26L87.19-26Q87.19-24.85 86.99-24L86.99-24 88.49-24Q88.69-23.2 88.69-22L88.69-22Q88.69-20.85 88.49-20L88.49-20 89.99-20Q90.19-19.2 90.19-18L90.19-18Q90.19-16.85 89.99-16L89.99-16 91.99-16Q92.19-15.2 92.19-14L92.19-14Q92.19-12.85 91.99-12L91.99-12 93.99-12Q93.79-12.85 93.79-14L93.79-14Q93.79-15.2 93.99-16L93.99-16Q93.79-16.85 93.79-18L93.79-18Q93.79-19.2 93.99-20L93.99-20Q93.79-20.85 93.79-22L93.79-22Q93.79-23.2 93.99-24L93.99-24Q93.79-24.85 93.79-26L93.79-26Q93.79-27.2 93.99-28L93.99-28 97.99-28Q98.19-27.2 98.19-26L98.19-26Q98.19-24.85 97.99-24L97.99-24ZM117.99-16Q118.19-15.2 118.19-14L118.19-14Q118.19-12.85 117.99-12L117.99-12Q118.19-11.2 118.19-10L118.19-10Q118.19-8.85 117.99-8L117.99-8Q118.19-7.2 118.19-6L118.19-6Q118.19-4.85 117.99-4L117.99-4 115.99-4Q116.19-3.2 116.19-2L116.19-2Q116.19-0.85 115.99 0L115.99 0 105.99 0Q105.79-0.85 105.79-2L105.79-2Q105.79-3.2 105.99-4L105.99-4 103.99-4Q103.79-4.85 103.79-6L103.79-6Q103.79-7.2 103.99-8L103.99-8 101.99-8Q101.79-8.85 101.79-10L101.79-10Q101.79-11.2 101.99-12L101.99-12Q101.79-12.85 101.79-14L101.79-14Q101.79-15.2 101.99-16L101.99-16Q101.79-16.85 101.79-18L101.79-18Q101.79-19.2 101.99-20L101.99-20 103.99-20Q103.79-20.85 103.79-22L103.79-22Q103.79-23.2 103.99-24L103.99-24 105.99-24Q105.79-24.85 105.79-26L105.79-26Q105.79-27.2 105.99-28L105.99-28 115.99-28Q116.19-27.2 116.19-26L116.19-26Q116.19-24.85 115.99-24L115.99-24 117.99-24Q118.19-23.2 118.19-22L118.19-22Q118.19-20.85 117.99-20L117.99-20 113.99-20Q113.79-20.85 113.79-22L113.79-22Q113.79-23.2 113.99-24L113.99-24 107.99-24Q108.19-23.2 108.19-22L108.19-22Q108.19-20.85 107.99-20L107.99-20 105.99-20Q106.19-19.2 106.19-18L106.19-18Q106.19-16.85 105.99-16L105.99-16Q106.19-15.2 106.19-14L106.19-14Q106.19-12.85 105.99-12L105.99-12Q106.19-11.2 106.19-10L106.19-10Q106.19-8.85 105.99-8L105.99-8 107.99-8Q108.19-7.2 108.19-6L108.19-6Q108.19-4.85 107.99-4L107.99-4 113.99-4Q113.79-4.85 113.79-6L113.79-6Q113.79-7.2 113.99-8L113.99-8Q113.79-8.85 113.79-10L113.79-10Q113.79-11.2 113.99-12L113.99-12 110.99-12Q110.79-12.85 110.79-14L110.79-14Q110.79-15.2 110.99-16L110.99-16 117.99-16ZM138.19-6Q138.19-4.85 137.99-4L137.99-4Q138.19-3.2 138.19-2L138.19-2Q138.19-0.85 137.99 0L137.99 0 133.99 0Q133.79-0.85 133.79-2L133.79-2Q133.79-3.2 133.99-4L133.99-4Q133.79-4.85 133.79-6L133.79-6Q133.79-7.2 133.99-8L133.99-8 125.99-8Q126.19-7.2 126.19-6L126.19-6Q126.19-4.85 125.99-4L125.99-4Q126.19-3.2 126.19-2L126.19-2Q126.19-0.85 125.99 0L125.99 0 121.99 0Q121.79-0.85 121.79-2L121.79-2Q121.79-3.2 121.99-4L121.99-4Q121.79-4.85 121.79-6L121.79-6Q121.79-7.2 121.99-8L121.99-8 123.49-8Q123.29-8.85 123.29-10L123.29-10Q123.29-11.2 123.49-12L123.49-12Q123.29-12.85 123.29-14L123.29-14Q123.29-15.2 123.49-16L123.49-16 124.49-16Q124.29-16.85 124.29-18L124.29-18Q124.29-19.2 124.49-20L124.49-20 125.99-20Q125.79-20.85 125.79-22L125.79-22Q125.79-23.2 125.99-24L125.99-24 126.99-24Q126.79-24.85 126.79-26L126.79-26Q126.79-27.2 126.99-28L126.99-28 132.99-28Q133.19-27.2 133.19-26L133.19-26Q133.19-24.85 132.99-24L132.99-24 133.99-24Q134.19-23.2 134.19-22L134.19-22Q134.19-20.85 133.99-20L133.99-20 135.49-20Q135.69-19.2 135.69-18L135.69-18Q135.69-16.85 135.49-16L135.49-16 136.49-16Q136.69-15.2 136.69-14L136.69-14Q136.69-12.85 136.49-12L136.49-12Q136.69-11.2 136.69-10L136.69-10Q136.69-8.85 136.49-8L136.49-8 137.99-8Q138.19-7.2 138.19-6L138.19-6ZM132.49-12Q132.29-12.85 132.29-14L132.29-14Q132.29-15.2 132.49-16L132.49-16 131.49-16Q131.29-16.85 131.29-18L131.29-18Q131.29-19.2 131.49-20L131.49-20 128.49-20Q128.69-19.2 128.69-18L128.69-18Q128.69-16.85 128.49-16L128.49-16 127.49-16Q127.69-15.2 127.69-14L127.69-14Q127.69-12.85 127.49-12L127.49-12 132.49-12ZM157.98-24Q158.18-23.2 158.18-22L158.18-22Q158.18-20.85 157.98-20L157.98-20Q158.18-19.2 158.18-18L158.18-18Q158.18-16.85 157.98-16L157.98-16Q158.18-15.2 158.18-14L158.18-14Q158.18-12.85 157.98-12L157.98-12Q158.18-11.2 158.18-10L158.18-10Q158.18-8.85 157.98-8L157.98-8Q158.18-7.2 158.18-6L158.18-6Q158.18-4.85 157.98-4L157.98-4Q158.18-3.2 158.18-2L158.18-2Q158.18-0.85 157.98 0L157.98 0 153.98 0Q153.78-0.85 153.78-2L153.78-2Q153.78-3.2 153.98-4L153.98-4 151.48-4Q151.28-4.85 151.28-6L151.28-6Q151.28-7.2 151.48-8L151.48-8 149.98-8Q149.78-8.85 149.78-10L149.78-10Q149.78-11.2 149.98-12L149.98-12 147.98-12Q147.78-12.85 147.78-14L147.78-14Q147.78-15.2 147.98-16L147.98-16 145.98-16Q146.18-15.2 146.18-14L146.18-14Q146.18-12.85 145.98-12L145.98-12Q146.18-11.2 146.18-10L146.18-10Q146.18-8.85 145.98-8L145.98-8Q146.18-7.2 146.18-6L146.18-6Q146.18-4.85 145.98-4L145.98-4Q146.18-3.2 146.18-2L146.18-2Q146.18-0.85 145.98 0L145.98 0 141.98 0Q141.78-0.85 141.78-2L141.78-2Q141.78-3.2 141.98-4L141.98-4Q141.78-4.85 141.78-6L141.78-6Q141.78-7.2 141.98-8L141.98-8Q141.78-8.85 141.78-10L141.78-10Q141.78-11.2 141.98-12L141.98-12Q141.78-12.85 141.78-14L141.78-14Q141.78-15.2 141.98-16L141.98-16Q141.78-16.85 141.78-18L141.78-18Q141.78-19.2 141.98-20L141.98-20Q141.78-20.85 141.78-22L141.78-22Q141.78-23.2 141.98-24L141.98-24Q141.78-24.85 141.78-26L141.78-26Q141.78-27.2 141.98-28L141.98-28 146.98-28Q147.18-27.2 147.18-26L147.18-26Q147.18-24.85 146.98-24L146.98-24 148.48-24Q148.68-23.2 148.68-22L148.68-22Q148.68-20.85 148.48-20L148.48-20 149.98-20Q150.18-19.2 150.18-18L150.18-18Q150.18-16.85 149.98-16L149.98-16 151.98-16Q152.18-15.2 152.18-14L152.18-14Q152.18-12.85 151.98-12L151.98-12 153.98-12Q153.78-12.85 153.78-14L153.78-14Q153.78-15.2 153.98-16L153.98-16Q153.78-16.85 153.78-18L153.78-18Q153.78-19.2 153.98-20L153.98-20Q153.78-20.85 153.78-22L153.78-22Q153.78-23.2 153.98-24L153.98-24Q153.78-24.85 153.78-26L153.78-26Q153.78-27.2 153.98-28L153.98-28 157.98-28Q158.18-27.2 158.18-26L158.18-26Q158.18-24.85 157.98-24L157.98-24Z" opacity="1" transform="matrix(1,0,0,1,0,0)" fill="#ffffff" class="wordmark-text-0" data-fill-palette-color="primary" id="text-0"></path></svg></g></svg></g></svg></g></svg></g><g transform="matrix(1,0,0,1,0,1.9228183557237806)"><svg viewBox="0 0 39.85679459032372 39.91445331412788" height="39.91445331412788" width="39.85679459032372"><g><svg xmlns="http://www.w3.org/2000/svg" xmlns:xlink="http://www.w3.org/1999/xlink" xml:space="preserve" version="1.1" shape-rendering="geometricPrecision" text-rendering="geometricPrecision" image-rendering="optimizeQuality" fill-rule="evenodd" clip-rule="evenodd" viewBox="499858 497024 4000284 4006071" x="0" y="0" height="39.91445331412788" width="39.85679459032372" class="icon-icon-0" data-fill-palette-color="accent" id="icon-0"><g fill="#000000" data-fill-palette-color="accent"><path fill="#ffffff" d="M2838987 2928754C2872177 2916470 2912572 2897926 2956865 2870523 2938557 2852334 2919186 2836034 2900643 2826821 2857649 2805088 2838633 2807923 2811348 2818553 2800128 2822805 2786544 2836625 2780284 2848554 2779103 2850680 2778395 2853279 2777804 2855877 2796466 2875248 2812648 2894855 2825640 2911273 2830719 2917769 2835089 2923675 2838987 2928754M2251606 1161651C1962936 1149603 1674147 1156099 1385359 1226495 1329845 1410989 1274213 1595483 1218582 1779977 1218582 1779977 1502291 1954314 1571624 1996953 1640957 2039474 1839861 2061089 2037111 2042781 2234362 2024473 2354956 2083176 2354956 2083176L2583979 2165738S2732684 2214873 2777450 2117783C2822333 2020575 2737291 1946636 2677289 1926321 2617169 1906123 2454172 1845885 2454172 1845885 2289285 1770174 1951597 1799112 2239086 1535245 2407044 1492960 2584215 1494968 2767764 1527213 2844657 1620642 2929817 1717141 3025017 1817538 3025017 1817538 3120098 1903052 3186360 1918289 3233370 1929037 3251087 1921832 3275182 1905060 3284985 1898209 3294789 1881437 3298096 1868445 3301403 1855452 3293371 1837144 3293371 1837144L2946116 1389020C2932297 1371303 2914344 1359019 2894619 1352050L2894737 1351932 2893201 1351460 2891548 1350869C2759614 1297246 2397359 1147123 2251606 1161651M2693825 2267670L2695833 2272158C2753118 2405981 2909501 2468464 3043324 2411060 3177147 2353775 3239748 2197392 3182344 2063569L3180455 2059081C3123169 1925257 2966668 1862657 2832845 1920060 2819853 1925730 2807451 1932226 2795757 1939667 2803080 1947699 2809931 1956440 2816073 1965652 2843948 2008173 2856940 2061089 2836861 2120854 2834381 2127941 2831664 2134792 2828711 2141406 2797293 2209440 2736937 2230464 2682014 2233889 2685203 2245228 2689100 2256567 2693825 2267670M2502953 497024C3557120 497024 4421123 1311301 4500142 2345271L3952684 2502953C3922092 2511693 3904257 2544057 3913115 2574648L4093475 3200888C4102334 3231480 4134579 3249433 4165171 3240575L4388878 3176084C4111547 3949613 3371917 4503095 2502953 4503095 1396698 4503095 499858 3606255 499858 2500000 499858 2218771 557970 1951243 662501 1708400L1078617 1840097C1108972 1849665 1141808 1832656 1151375 1802301L1348035 1181021C1357602 1150548 1340593 1117830 1310238 1108263L1122319 1048734C1481621 706912 1967779 497024 2502953 497024M2753709 2952495C2757488 2951904 2763394 2950841 2770835 2949187 2744378 2915643 2703510 2869579 2666659 2851035 2623665 2829302 2604649 2832136 2577247 2842649 2566144 2847019 2552561 2860838 2546301 2872650 2539923 2884461 2543466 2904186 2543466 2904186L2549017 2916588C2563545 2932415 2576656 2948124 2587168 2961471 2593310 2969267 2598507 2976235 2602877 2982141L2745323 2953439 2748512 2953203C2748630 2953085 2750283 2952967 2753709 2952495M2535789 3472314C2548663 3491449 2567207 3506921 2590357 3515780L2765284 3582987 3012615 3428021 2759851 3347822C2735755 3352547 2704928 3358570 2674336 3364712 2635477 3372508 2597090 3380303 2575002 3385264 2553742 3389989 2530946 3391642 2506969 3390343 2504134 3390107 2501299 3389752 2498465 3389516L2520316 3438770C2523387 3449164 2527757 3459203 2533544 3468416L2535316 3472550zM2530237 2996787C2503662 2963597 2463975 2919423 2428187 2901351 2385193 2879618 2366177 2882571 2338774 2892965 2327672 2897335 2314089 2911155 2307829 2923084 2301450 2934777 2304994 2954503 2304994 2954503L2359917 3077932C2363224 3074624 2366531 3071317 2369838 3068364 2399721 3042261 2431494 3027143 2456298 3017221 2480984 3007418 2499055 3003165 2501417 3002575L2502362 3002457zM3361169 3731574L4037135 3183762 3869413 2630398S3536686 2642445 3455424 2645280C3374043 2648351 3196518 2740480 3042379 2864972 2888241 2989582 2755362 3007418 2755362 3007418L2518898 3065530S2367949 3106870 2384485 3212700C2400902 3318293 2512638 3332822 2573939 3316522 2635122 3299986 2804262 3259945 2804262 3259945L3112303 3205022S3162147 3289119 3166871 3320656C3169824 3340381 3155296 3399438 3155296 3399438 3010016 3499244 2864854 3599050 2719574 3698975L2344680 3599759S2218062 3581215 2154517 3605192C2109397 3622201 2098649 3638146 2087900 3665430 2083530 3676533 2084593 3695904 2088963 3708542 2093452 3721180 2110342 3731929 2110342 3731929L2647642 3912761C2668903 3919848 2690754 3920084 2710952 3915005V3915241L2712605 3914769 2714259 3914297C2873713 3881815 3169706 3822994 3314278 3760158H3314514C3331286 3752835 3346995 3743268 3361169 3731574" data-fill-palette-color="accent"></path></g></svg></g></svg></g></svg></g></svg></g><path d="M180.706 99.447L180.706 36.451 6.408 36.451 6.408 210.749 180.706 210.749 180.706 147.753 177.432 147.753 177.432 207.475 9.683 207.475 9.683 39.725 177.432 39.725 177.432 99.447Z" fill="#ffffff" stroke="transparent" data-fill-palette-color="tertiary"></path></svg></g><defs></defs></svg><rect width="395.52" height="247.2" fill="none" stroke="none" visibility="hidden"></rect></g></svg></g></svg>